<?xml version="1.0" encoding="UTF-8" standalone="no"?>
<!-- Created with Inkscape (http://www.inkscape.org/) -->

<svg
   width="26.428242mm"
   height="5.2660604mm"
   viewBox="0 0 26.428242 5.2660604"
   version="1.1"
   id="svg4991"
   sodipodi:docname="hashgreen-green.svg"
   inkscape:export-filename="/Users/stmharry/bitmap.png"
   inkscape:export-xdpi="640"
   inkscape:export-ydpi="640"
   inkscape:version="1.1.1 (c3084ef, 2021-09-22)"
   xmlns:inkscape="http://www.inkscape.org/namespaces/inkscape"
   xmlns:sodipodi="http://sodipodi.sourceforge.net/DTD/sodipodi-0.dtd"
   xmlns="http://www.w3.org/2000/svg"
   xmlns:svg="http://www.w3.org/2000/svg">
  <sodipodi:namedview
     id="namedview4993"
     pagecolor="#ffffff"
     bordercolor="#666666"
     borderopacity="1.0"
     inkscape:pageshadow="2"
     inkscape:pageopacity="0.0"
     inkscape:pagecheckerboard="0"
     inkscape:document-units="mm"
     showgrid="false"
     inkscape:zoom="6.0364197"
     inkscape:cx="48.455875"
     inkscape:cy="26.257286"
     inkscape:window-width="1312"
     inkscape:window-height="1027"
     inkscape:window-x="594"
     inkscape:window-y="44"
     inkscape:window-maximized="0"
     inkscape:current-layer="layer1" />
  <defs
     id="defs4988" />
  <g
     inkscape:label="Layer 1"
     inkscape:groupmode="layer"
     id="layer1"
     transform="translate(-168.77289,-175.49684)">
    <g
       id="g1910"
       transform="matrix(0.35277777,0,0,-0.35277777,171.39403,175.98008)">
      <path
         d="m 0,0 c 0,0 -3.379,-0.029 -3.599,-4.021 0,0 -1.849,-0.128 -3.104,-1.515 0,0 -0.728,0.721 -0.727,2.542 10e-4,2.004 1.905,2.653 3.148,2.136 0,0 -0.176,1.398 1.072,1.981 C -1.921,1.725 -0.899,1.178 0,0"
         style="fill:#007d32;fill-opacity:1;fill-rule:nonzero;stroke:none"
         id="path1912" />
    </g>
    <g
       id="g1914"
       transform="matrix(0.35277777,0,0,-0.35277777,170.13313,177.69885)">
      <path
         d="m 0,0 c 0,0 -2.421,-0.176 -3.492,-2.099 -1.071,-1.922 0.367,-4.593 2.656,-3.991 0,0 -0.184,-2.979 3.17,-2.554 0,0 2.859,0.436 2.847,3.361 l 0.012,2.319 H 2.592 l -0.01,-1.732 c 0,0 0.08,-1.248 -1.305,-1.306 C -0.015,-6.056 0,-4.667 0,-4.667 Z"
         style="fill:#007d32;fill-opacity:1;fill-rule:nonzero;stroke:none"
         id="path1916" />
    </g>
    <g
       id="g1918"
       transform="matrix(0.35277777,0,0,-0.35277777,171.03402,177.66767)">
      <path
         d="m 0,0 h 2.627 v 1.599 c 0,0 0.059,1.32 1.188,1.336 1.184,0.016 1.294,-1.112 1.292,-1.336 -0.001,-0.133 0,-2.054 0,-2.054 0,0 2.051,0.625 3.548,-1.165 0,0 0.708,1.341 0.106,2.397 C 8.292,1.731 7.411,1.937 7,1.996 7,1.996 7.91,3.441 6.402,4.85 4.896,6.257 2.499,5.676 1.516,4.927 0.562,4.201 0.096,3.559 0,2.113 Z"
         style="fill:#007d32;fill-opacity:1;fill-rule:nonzero;stroke:none"
         id="path1920" />
    </g>
    <g
       id="g1922"
       transform="matrix(0.35277777,0,0,-0.35277777,172.83996,178.08091)">
      <path
         d="m 0,0 v -3.108 c 0,-0.045 0.001,-0.096 0,-0.151 v 0 c -0.017,-0.927 -0.338,-3.239 -3.134,-3.456 0,0 1.097,-0.977 2.989,-0.493 1.077,0.293 1.534,1.115 1.718,1.63 0.08,0.223 0.117,0.459 0.117,0.696 v 0.668 c 0,0 1.556,-0.28 1.937,1.599 C 3.879,-0.682 1.831,0.461 0,0"
         style="fill:#007d32;fill-opacity:1;fill-rule:nonzero;stroke:none"
         id="path1924" />
    </g>
    <g
       id="g1926"
       transform="matrix(0.35277777,0,0,-0.35277777,177.42847,176.76335)">
      <path
         d="M 0,0 H 1.491 V -7.5 H 0 v 3.922 H -3.463 V -7.5 h -1.48 V 0 h 1.48 V -2.271 H 0 Z"
         style="fill:#007d32;fill-opacity:1;fill-rule:nonzero;stroke:none"
         id="path1928" />
    </g>
    <g
       id="g1930"
       transform="matrix(0.35277777,0,0,-0.35277777,179.80732,177.97688)">
      <path
         d="m 0,0 c -0.184,0.16 -0.391,0.275 -0.631,0.367 -0.252,0.092 -0.516,0.137 -0.792,0.137 -0.045,0 -0.092,0 -0.148,-0.011 C -1.778,0.481 -1.962,0.436 -2.134,0.367 -2.34,0.275 -2.523,0.148 -2.672,0 c -0.149,-0.149 -0.264,-0.333 -0.345,-0.528 -0.08,-0.195 -0.114,-0.401 -0.114,-0.619 0,-0.218 0.034,-0.436 0.114,-0.631 0.081,-0.195 0.196,-0.379 0.345,-0.527 0.149,-0.161 0.332,-0.276 0.538,-0.367 0.172,-0.07 0.367,-0.116 0.563,-0.127 0.056,-0.011 0.103,-0.011 0.148,-0.011 0.287,0 0.551,0.046 0.792,0.126 0.24,0.092 0.447,0.207 0.631,0.367 z M 0,1.823 1.49,2.271 V -4.06 H 0 v 0.435 C -0.23,-3.797 -0.494,-3.911 -0.78,-4.002 -1.032,-4.083 -1.296,-4.128 -1.571,-4.14 h -0.116 c -0.367,0 -0.699,0.057 -0.997,0.16 -0.298,0.115 -0.562,0.263 -0.802,0.447 -0.231,0.195 -0.425,0.414 -0.586,0.665 -0.16,0.252 -0.286,0.528 -0.366,0.815 -0.081,0.298 -0.126,0.596 -0.126,0.906 0,0.31 0.045,0.607 0.126,0.906 0.08,0.286 0.206,0.561 0.366,0.814 0.161,0.253 0.355,0.47 0.586,0.665 0.24,0.183 0.504,0.333 0.802,0.448 0.298,0.102 0.63,0.16 0.997,0.16 h 0.116 C -1.308,1.835 -1.044,1.788 -0.803,1.708 -0.505,1.628 -0.241,1.513 0,1.365 Z"
         style="fill:#007d32;fill-opacity:1;fill-rule:nonzero;stroke:none"
         id="path1932" />
    </g>
    <g
       id="g1934"
       transform="matrix(0.35277777,0,0,-0.35277777,182.15375,178.48674)">
      <path
         d="m 0,0 c 0.16,-0.229 0.252,-0.528 0.252,-0.872 0,-0.367 -0.092,-0.688 -0.274,-0.963 -0.184,-0.275 -0.448,-0.481 -0.792,-0.631 -0.344,-0.149 -0.757,-0.229 -1.261,-0.229 -0.241,0 -0.471,0.012 -0.689,0.023 -0.217,0.023 -0.413,0.057 -0.62,0.091 -0.194,0.046 -0.388,0.104 -0.584,0.184 l -0.057,0.011 v 1.343 c 0.241,-0.104 0.469,-0.196 0.676,-0.264 0.206,-0.069 0.424,-0.115 0.631,-0.15 0.218,-0.034 0.436,-0.057 0.677,-0.057 0.229,0 0.412,0.023 0.55,0.08 0.137,0.046 0.241,0.115 0.309,0.195 0.058,0.08 0.092,0.172 0.092,0.276 0,0.115 -0.034,0.207 -0.126,0.287 -0.08,0.068 -0.206,0.137 -0.389,0.205 -0.172,0.058 -0.414,0.116 -0.711,0.184 -0.31,0.069 -0.597,0.149 -0.861,0.241 -0.263,0.092 -0.493,0.207 -0.677,0.344 -0.194,0.138 -0.343,0.298 -0.447,0.505 -0.114,0.195 -0.16,0.424 -0.172,0.711 0.012,0.343 0.104,0.653 0.276,0.917 0.183,0.264 0.435,0.471 0.767,0.619 0.322,0.149 0.724,0.23 1.171,0.23 0.298,0 0.584,-0.023 0.848,-0.069 0.265,-0.034 0.505,-0.092 0.746,-0.161 0.058,-0.022 0.114,-0.045 0.172,-0.056 V 1.721 C -0.687,1.789 -0.883,1.857 -1.09,1.915 -1.285,1.973 -1.491,2.019 -1.697,2.041 -1.903,2.076 -2.099,2.099 -2.294,2.099 -2.58,2.099 -2.787,2.053 -2.937,1.961 -3.073,1.869 -3.143,1.743 -3.143,1.582 -3.154,1.479 -3.108,1.388 -3.017,1.319 -2.937,1.239 -2.798,1.17 -2.614,1.113 -2.42,1.043 -2.179,0.987 -1.869,0.929 -1.422,0.837 -1.044,0.722 -0.723,0.573 -0.412,0.424 -0.172,0.229 0,0"
         style="fill:#007d32;fill-opacity:1;fill-rule:nonzero;stroke:none"
         id="path1936" />
    </g>
    <g
       id="g1938"
       transform="matrix(0.35277777,0,0,-0.35277777,184.33036,177.73434)">
      <path
         d="m 0,0 c 0.172,-0.39 0.264,-0.894 0.264,-1.513 v -3.235 h -1.48 v 3.235 c 0,0.447 -0.102,0.779 -0.32,0.997 -0.219,0.218 -0.528,0.332 -0.941,0.332 -0.252,0 -0.493,-0.045 -0.711,-0.114 -0.207,-0.08 -0.402,-0.183 -0.562,-0.321 V -4.748 H -5.229 V 2.891 L -3.75,3.28 V 0.746 c 0.218,0.126 0.447,0.229 0.711,0.298 0.264,0.068 0.539,0.103 0.837,0.103 0.562,0 1.021,-0.091 1.389,-0.275 C -0.447,0.689 -0.184,0.402 0,0"
         style="fill:#007d32;fill-opacity:1;fill-rule:nonzero;stroke:none"
         id="path1940" />
    </g>
    <g
       id="g1942"
       transform="matrix(0.35277777,0,0,-0.35277777,186.29237,177.96481)">
      <path
         d="m 0,0 c -0.184,0.149 -0.39,0.264 -0.642,0.344 -0.24,0.081 -0.504,0.126 -0.779,0.126 -0.058,0 -0.103,0 -0.149,-0.011 C -1.766,0.447 -1.949,0.413 -2.11,0.355 -2.327,0.275 -2.499,0.172 -2.66,0.034 c -0.16,-0.149 -0.276,-0.309 -0.356,-0.492 -0.091,-0.184 -0.137,-0.391 -0.137,-0.609 0,-0.229 0.046,-0.435 0.137,-0.63 0.08,-0.184 0.196,-0.345 0.356,-0.482 0.161,-0.138 0.333,-0.24 0.55,-0.31 0.161,-0.057 0.344,-0.092 0.54,-0.103 0.046,0 0.091,-0.011 0.149,-0.011 0.275,0 0.539,0.045 0.791,0.126 0.24,0.08 0.458,0.194 0.63,0.344 z M 0,1.697 1.479,2.236 V -2.982 C 1.479,-3.28 1.445,-3.578 1.377,-3.876 1.308,-4.174 1.193,-4.461 1.045,-4.725 0.896,-4.988 0.7,-5.229 0.471,-5.437 0.23,-5.643 -0.057,-5.803 -0.39,-5.917 -0.722,-6.044 -1.101,-6.101 -1.548,-6.101 H -1.57 c -0.276,0 -0.505,0 -0.701,0.012 -0.206,0.01 -0.389,0.022 -0.549,0.045 -0.15,0.023 -0.299,0.046 -0.425,0.081 -0.138,0.034 -0.276,0.068 -0.425,0.102 -0.137,0.047 -0.298,0.092 -0.47,0.138 l 0.286,1.101 c 0.208,-0.057 0.415,-0.115 0.609,-0.161 0.195,-0.057 0.413,-0.091 0.632,-0.125 0.217,-0.035 0.458,-0.058 0.721,-0.058 0.104,0 0.206,0.012 0.322,0.023 0.102,0.023 0.217,0.046 0.333,0.08 0.206,0.058 0.401,0.16 0.573,0.276 0.172,0.126 0.32,0.275 0.424,0.459 0.103,0.171 0.16,0.377 0.172,0.607 -0.23,-0.138 -0.482,-0.23 -0.757,-0.298 -0.24,-0.069 -0.493,-0.103 -0.745,-0.115 h -0.116 c -0.401,0 -0.779,0.08 -1.134,0.206 -0.356,0.15 -0.666,0.344 -0.93,0.597 -0.275,0.253 -0.481,0.55 -0.63,0.906 -0.149,0.344 -0.229,0.746 -0.229,1.17 0,0.435 0.08,0.826 0.229,1.169 0.149,0.356 0.355,0.654 0.63,0.906 0.264,0.253 0.574,0.437 0.93,0.574 0.355,0.137 0.733,0.207 1.134,0.207 H -1.57 C -1.307,1.789 -1.043,1.754 -0.79,1.686 -0.504,1.605 -0.24,1.502 0,1.365 Z"
         style="fill:#007d32;fill-opacity:1;fill-rule:nonzero;stroke:none"
         id="path1944" />
    </g>
    <g
       id="g1946"
       transform="matrix(0.35277777,0,0,-0.35277777,188.54612,177.33782)">
      <path
         d="m 0,0 c 0.069,0 0.126,-0.023 0.184,-0.046 v -1.605 c 0,0 -0.023,0.011 -0.07,0.011 -0.045,0.012 -0.102,0.023 -0.172,0.035 -0.068,0.011 -0.148,0.022 -0.229,0.022 -0.08,0.012 -0.16,0.012 -0.241,0.012 -0.264,0 -0.493,-0.034 -0.677,-0.126 -0.194,-0.08 -0.343,-0.196 -0.458,-0.345 -0.114,-0.136 -0.206,-0.297 -0.252,-0.481 -0.058,-0.184 -0.081,-0.367 -0.081,-0.55 v -2.799 h -1.49 v 5.792 h 1.49 v -0.814 c 0.127,0.184 0.287,0.344 0.459,0.481 0.183,0.126 0.39,0.241 0.607,0.31 0.23,0.08 0.483,0.115 0.758,0.126 C -0.126,0.023 -0.058,0.012 0,0"
         style="fill:#007d32;fill-opacity:1;fill-rule:nonzero;stroke:none"
         id="path1948" />
    </g>
    <g
       id="g1950"
       transform="matrix(0.35277777,0,0,-0.35277777,189.19347,178.34514)">
      <path
         d="M 0,0 1.135,0.654 2.271,1.308 C 1.915,1.479 1.514,1.514 1.135,1.399 1.021,1.364 0.895,1.319 0.791,1.25 0.321,0.986 0.034,0.504 0,0 M 3.142,-0.218 H 4.564 C 4.518,-1.215 3.991,-2.167 3.062,-2.695 2.454,-3.05 1.777,-3.166 1.135,-3.062 0.264,-2.936 -0.539,-2.42 -1.01,-1.606 -1.835,-0.172 -1.342,1.651 0.08,2.477 0.413,2.672 0.768,2.787 1.135,2.844 2.316,3.016 3.532,2.477 4.163,1.388 L 4.186,1.342 3.728,1.066 2.958,0.63 1.135,-0.424 0.241,-0.94 c 0.206,-0.345 0.538,-0.574 0.894,-0.677 0.402,-0.115 0.838,-0.081 1.227,0.149 0.47,0.263 0.745,0.745 0.78,1.25"
         style="fill:#007d32;fill-opacity:1;fill-rule:nonzero;stroke:none"
         id="path1952" />
    </g>
    <g
       id="g1954"
       transform="matrix(0.35277777,0,0,-0.35277777,191.44243,178.34514)">
      <path
         d="M 0,0 1.136,0.654 2.271,1.308 C 1.915,1.479 1.515,1.514 1.136,1.399 1.021,1.364 0.896,1.319 0.792,1.25 0.321,0.986 0.034,0.504 0,0 M 3.143,-0.218 H 4.565 C 4.519,-1.215 3.991,-2.167 3.063,-2.695 2.455,-3.05 1.778,-3.166 1.136,-3.062 0.264,-2.936 -0.538,-2.42 -1.009,-1.606 -1.835,-0.172 -1.342,1.651 0.08,2.477 0.413,2.672 0.769,2.787 1.136,2.844 2.316,3.016 3.533,2.477 4.163,1.388 L 4.187,1.342 3.728,1.066 2.959,0.63 1.136,-0.424 0.241,-0.94 c 0.206,-0.345 0.539,-0.574 0.895,-0.677 0.402,-0.115 0.837,-0.081 1.227,0.149 0.47,0.263 0.745,0.745 0.78,1.25"
         style="fill:#007d32;fill-opacity:1;fill-rule:nonzero;stroke:none"
         id="path1956" />
    </g>
    <g
       id="g1958"
       transform="matrix(0.35277777,0,0,-0.35277777,195.108,177.73434)">
      <path
         d="m 0,0 c 0.172,-0.39 0.264,-0.894 0.264,-1.513 v -3.235 h -1.48 v 3.235 c 0,0.447 -0.114,0.779 -0.32,0.997 -0.219,0.218 -0.528,0.332 -0.942,0.332 -0.251,0 -0.493,-0.045 -0.71,-0.126 -0.207,-0.08 -0.402,-0.183 -0.562,-0.333 v -4.105 h -1.479 v 5.94 L -3.75,1.583 V 0.677 c 0.218,0.149 0.447,0.264 0.711,0.344 0.263,0.08 0.538,0.126 0.837,0.126 0.562,0 1.02,-0.091 1.388,-0.275 C -0.447,0.689 -0.184,0.402 0,0"
         style="fill:#007d32;fill-opacity:1;fill-rule:nonzero;stroke:none"
         id="path1960" />
    </g>
  </g>
</svg>
